<?xml version="1.0" encoding="UTF-8"?>
<svg width="150px" height="50px" viewBox="0 0 150 50" version="1.1" xmlns="http://www.w3.org/2000/svg" xmlns:xlink="http://www.w3.org/1999/xlink">
    <!-- Generator: Sketch 51.3 (57544) - http://www.bohemiancoding.com/sketch -->
    <title>Artboard</title>
    <desc>Created with Sketch.</desc>
    <defs></defs>
    <g id="Artboard" stroke="none" stroke-width="1" fill="none" fill-rule="evenodd">
        <path d="M13.43,19.17 C14.830007,19.17 16.029995,19.4999967 17.03,20.16 C18.030005,20.8200033 18.7399979,21.7099944 19.16,22.83 L19.16,19.38 L23.36,19.38 L23.36,36 L19.16,36 L19.16,32.52 C18.7399979,33.6400056 18.030005,34.5349966 17.03,35.205 C16.029995,35.8750034 14.830007,36.21 13.43,36.21 C12.029993,36.21 10.7700056,35.8700034 9.65,35.19 C8.5299944,34.5099966 7.65500315,33.5250064 7.025,32.235 C6.39499685,30.9449935 6.08,29.4300087 6.08,27.69 C6.08,25.9499913 6.39499685,24.4350064 7.025,23.145 C7.65500315,21.8549936 8.5299944,20.8700034 9.65,20.19 C10.7700056,19.5099966 12.029993,19.17 13.43,19.17 Z M14.75,22.86 C13.4299934,22.86 12.370004,23.2899957 11.57,24.15 C10.769996,25.0100043 10.37,26.1899925 10.37,27.69 C10.37,29.1900075 10.769996,30.3649957 11.57,31.215 C12.370004,32.0650043 13.4299934,32.49 14.75,32.49 C16.0300064,32.49 17.0849958,32.0550044 17.915,31.185 C18.7450041,30.3149957 19.16,29.1500073 19.16,27.69 C19.16,26.2099926 18.7450041,25.0350044 17.915,24.165 C17.0849958,23.2949956 16.0300064,22.86 14.75,22.86 Z M32.43,22.56 C33.0500031,21.4999947 33.8699949,20.665003 34.89,20.055 C35.9100051,19.444997 37.0499937,19.14 38.31,19.14 L38.31,23.67 L37.08,23.67 C33.9799845,23.67 32.43,25.1099856 32.43,27.99 L32.43,36 L28.2,36 L28.2,19.38 L32.43,19.38 L32.43,22.56 Z M50.53,32.37 L50.53,36 L48.31,36 C46.4499907,36 45.0250049,35.5500045 44.035,34.65 C43.044995,33.7499955 42.55,32.2500105 42.55,30.15 L42.55,22.95 L40.24,22.95 L40.24,19.38 L42.55,19.38 L42.55,15.27 L46.78,15.27 L46.78,19.38 L50.5,19.38 L50.5,22.95 L46.78,22.95 L46.78,30.21 C46.78,31.010004 46.9399984,31.5699984 47.26,31.89 C47.5800016,32.2100016 48.1199962,32.37 48.88,32.37 L50.53,32.37 Z M57.41,19.38 L61.94,30.66 L66.14,19.38 L70.79,19.38 L60.62,43.92 L55.94,43.92 L59.69,35.52 L52.7,19.38 L57.41,19.38 Z M78,13.8 L78,36 L73.77,36 L73.77,13.8 L78,13.8 Z M90.52,19.17 C92.1400081,19.17 93.5949935,19.5099966 94.885,20.19 C96.1750064,20.8700034 97.1899963,21.8549936 97.93,23.145 C98.6700037,24.4350064 99.04,25.9499913 99.04,27.69 C99.04,29.4300087 98.6700037,30.9399936 97.93,32.22 C97.1899963,33.5000064 96.1750064,34.4849965 94.885,35.175 C93.5949935,35.8650035 92.1400081,36.21 90.52,36.21 C88.8999919,36.21 87.4450064,35.8650035 86.155,35.175 C84.8649935,34.4849965 83.8500037,33.5000064 83.11,32.22 C82.3699963,30.9399936 82,29.4300087 82,27.69 C82,25.9499913 82.3699963,24.4350064 83.11,23.145 C83.8500037,21.8549936 84.8649935,20.8700034 86.155,20.19 C87.4450064,19.5099966 88.8999919,19.17 90.52,19.17 Z M90.52,22.83 C89.3399941,22.83 88.3400041,23.2449958 87.52,24.075 C86.6999959,24.9050041 86.29,26.1099921 86.29,27.69 C86.29,29.2700079 86.6999959,30.4749959 87.52,31.305 C88.3400041,32.1350042 89.3399941,32.55 90.52,32.55 C91.7000059,32.55 92.6999959,32.1350042 93.52,31.305 C94.3400041,30.4749959 94.75,29.2700079 94.75,27.69 C94.75,26.1099921 94.3400041,24.9050041 93.52,24.075 C92.6999959,23.2449958 91.7000059,22.83 90.52,22.83 Z M112.97,19.17 C114.370007,19.17 115.629994,19.5099966 116.75,20.19 C117.870006,20.8700034 118.744997,21.8549936 119.375,23.145 C120.005003,24.4350064 120.32,25.9499913 120.32,27.69 C120.32,29.4300087 120.005003,30.9449935 119.375,32.235 C118.744997,33.5250064 117.870006,34.5099966 116.75,35.19 C115.629994,35.8700034 114.370007,36.21 112.97,36.21 C111.569993,36.21 110.375005,35.8750034 109.385,35.205 C108.394995,34.5349966 107.690002,33.6400056 107.27,32.52 L107.27,43.92 L103.04,43.92 L103.04,19.38 L107.27,19.38 L107.27,22.83 C107.690002,21.7099944 108.394995,20.8200033 109.385,20.16 C110.375005,19.4999967 111.569993,19.17 112.97,19.17 Z M111.65,22.86 C110.369994,22.86 109.315004,23.2949956 108.485,24.165 C107.654996,25.0350044 107.24,26.2099926 107.24,27.69 C107.24,29.1500073 107.654996,30.3149957 108.485,31.185 C109.315004,32.0550044 110.369994,32.49 111.65,32.49 C112.970007,32.49 114.029996,32.0650043 114.83,31.215 C115.630004,30.3649957 116.03,29.1900075 116.03,27.69 C116.03,26.1899925 115.630004,25.0100043 114.83,24.15 C114.029996,23.2899957 112.970007,22.86 111.65,22.86 Z M139.95,27.06 C139.95,27.4800021 139.900001,27.9599973 139.8,28.5 L127.62,28.5 C127.68,29.9800074 128.079996,31.0699965 128.82,31.77 C129.560004,32.4700035 130.479995,32.82 131.58,32.82 C132.560005,32.82 133.374997,32.5800024 134.025,32.1 C134.675003,31.6199976 135.089999,30.9700041 135.27,30.15 L139.74,30.15 C139.519999,31.3100058 139.050004,32.3499954 138.33,33.27 C137.609996,34.1900046 136.685006,34.9099974 135.555,35.43 C134.424994,35.9500026 133.170007,36.21 131.79,36.21 C130.169992,36.21 128.730006,35.8650035 127.47,35.175 C126.209994,34.4849965 125.230003,33.5000064 124.53,32.22 C123.829997,30.9399936 123.48,29.4300087 123.48,27.69 C123.48,25.9499913 123.829997,24.4350064 124.53,23.145 C125.230003,21.8549936 126.209994,20.8700034 127.47,20.19 C128.730006,19.5099966 130.169992,19.17 131.79,19.17 C133.430008,19.17 134.864994,19.5099966 136.095,20.19 C137.325006,20.8700034 138.274997,21.8049941 138.945,22.995 C139.615003,24.185006 139.95,25.5399924 139.95,27.06 Z M135.69,26.64 C135.75,25.2799932 135.395004,24.2500035 134.625,23.55 C133.854996,22.8499965 132.910006,22.5 131.79,22.5 C130.649994,22.5 129.690004,22.8499965 128.91,23.55 C128.129996,24.2500035 127.7,25.2799932 127.62,26.64 L135.69,26.64 Z" id="artylope" fill="#484DA9"></path>
    </g>
</svg>