<?xml version="1.0" encoding="UTF-8"?>
<svg width="16px" height="20px" viewBox="0 0 16 20" version="1.1" xmlns="http://www.w3.org/2000/svg" xmlns:xlink="http://www.w3.org/1999/xlink">
    <!-- Generator: Sketch 51.3 (57544) - http://www.bohemiancoding.com/sketch -->
    <title>Shape</title>
    <desc>Created with Sketch.</desc>
    <defs></defs>
    <g id="Page-1" stroke="none" stroke-width="1" fill="none" fill-rule="evenodd">
        <g id="icon_locked" fill="#FFFFFF" fill-rule="nonzero">
            <path d="M15,8 L13,8 L13,5 C13,2.243 10.757,0 8,0 C5.243,0 3,2.243 3,5 L3,8 L1,8 C0.447,8 0,8.447 0,9 L0,19 C0,19.553 0.447,20 1,20 L4,20 L7,20 L9,20 L11,20 L15,20 C15.553,20 16,19.553 16,19 L16,9 C16,8.447 15.553,8 15,8 Z M5,5 C5,3.346 6.346,2 8,2 C9.654,2 11,3.346 11,5 L11,8 L5,8 L5,5 Z M9,15.723 L9,18 L7,18 L7,15.723 C6.404,15.377 6,14.74 6,14 C6,12.895 6.895,12 8,12 C9.105,12 10,12.895 10,14 C10,14.739 9.596,15.377 9,15.723 Z" id="Shape"></path>
        </g>
    </g>
</svg>